<?xml version="1.0" standalone="no"?>
<!DOCTYPE svg PUBLIC "-//W3C//DTD SVG 20010904//EN"
 "http://www.w3.org/TR/2001/REC-SVG-20010904/DTD/svg10.dtd">
<svg version="1.0" xmlns="http://www.w3.org/2000/svg"
 width="1600.000000pt" height="1200.000000pt" viewBox="0 0 1600.000000 1200.000000"
 preserveAspectRatio="xMidYMid meet">
<metadata>
Created by potrace 1.16, written by Peter Selinger 2001-2019
</metadata>
<g transform="translate(0.000000,1200.000000) scale(0.100000,-0.100000)"
fill="#000000" stroke="none">
<path d="M0 6000 l0 -6000 8000 0 8000 0 0 6000 0 6000 -8000 0 -8000 0 0
-6000z m13580 3003 c0 -21 -7 -117 -15 -213 -8 -96 -15 -188 -15 -203 0 -51
-27 -44 -98 26 l-67 66 -116 -132 c-63 -73 -467 -533 -897 -1024 -430 -491
-782 -897 -782 -903 0 -6 16 -37 37 -68 20 -31 73 -115 118 -187 499 -792 645
-1026 645 -1030 0 -3 -206 -5 -459 -5 l-459 0 -213 334 c-117 184 -216 333
-220 330 -4 -2 -52 -59 -106 -127 -55 -67 -188 -232 -297 -367 -109 -135 -201
-246 -205 -248 -14 -5 -141 110 -134 121 4 7 69 89 144 182 76 94 210 260 299
370 254 315 312 385 320 385 4 0 122 -180 261 -400 l254 -399 243 -1 c235 0
242 1 233 19 -6 10 -92 149 -192 307 -405 643 -499 794 -499 803 0 9 394 461
1494 1716 155 176 308 351 340 388 l59 68 -88 90 c-54 54 -85 93 -79 99 10 10
301 37 422 39 l72 1 0 -37z m-2605 -1360 c81 -131 177 -286 214 -345 36 -59
71 -106 76 -105 6 2 129 139 273 306 l264 302 69 -62 c62 -54 68 -64 56 -78
-295 -344 -691 -790 -696 -784 -4 4 -120 189 -257 411 l-249 402 -253 0 c-200
0 -252 -3 -246 -12 9 -15 504 -745 660 -973 l103 -151 -177 -189 c-960 -1034
-1629 -1775 -1798 -1990 l-39 -50 -75 8 c-122 13 -121 13 -109 45 15 39 73
113 240 307 262 304 572 647 1244 1373 231 250 432 468 446 485 l27 32 -439
645 c-241 355 -438 648 -439 653 0 4 216 7 479 7 l479 0 147 -237z m-3205
-990 c0 -404 -4 -672 -11 -713 -13 -79 -59 -168 -112 -216 -22 -20 -69 -50
-106 -68 l-66 -31 -370 0 -370 0 -67 33 c-109 54 -182 154 -208 288 -8 41 -11
143 -8 310 l3 249 32 67 c36 76 100 146 165 179 86 44 127 49 431 49 l287 0 0
-139 0 -140 -282 -3 c-303 -3 -314 -5 -337 -55 -7 -15 -11 -112 -11 -254 0
-256 5 -278 61 -298 44 -15 574 -15 618 0 63 22 61 1 61 729 l0 660 145 0 145
0 0 -647z m-3952 395 l-3 -143 -312 -3 -313 -2 0 -640 0 -640 -145 0 -145 0 0
640 0 640 -312 2 -313 3 -3 143 -3 142 776 0 776 0 -3 -142z m1082 -388 l0
-140 -330 0 c-268 0 -337 -3 -366 -15 -63 -26 -64 -35 -64 -485 l0 -400 -140
0 -141 0 3 448 3 447 29 62 c45 99 154 186 263 212 21 5 197 9 391 10 l352 1
0 -140z m1038 126 c108 -29 200 -104 249 -204 l28 -57 0 -310 0 -310 -32 -67
c-39 -82 -100 -145 -179 -184 l-59 -29 -335 -3 c-361 -4 -409 1 -493 46 -56
30 -127 102 -156 160 -31 62 -46 167 -33 242 24 132 93 231 204 291 l63 34
318 3 317 3 0 -135 0 -136 -280 0 -279 0 -35 -30 c-44 -39 -55 -93 -30 -145
30 -63 38 -65 373 -65 l301 0 32 29 33 29 3 246 c3 207 1 250 -13 275 -30 59
-41 61 -405 61 l-330 0 0 135 0 135 343 0 c261 0 354 -4 395 -14z m3154 -23
c137 -65 209 -173 216 -325 8 -153 -49 -278 -161 -355 -86 -58 -118 -63 -444
-63 l-293 0 0 135 0 135 281 0 281 0 34 34 c30 30 34 40 34 85 0 42 -5 56 -29
83 l-29 33 -312 3 -311 3 -35 -35 -34 -34 0 -252 0 -252 34 -34 34 -34 281 0
281 0 0 -135 0 -135 -288 0 c-236 0 -298 3 -343 16 -150 45 -246 156 -269 311
-13 88 -12 428 0 516 23 155 114 270 253 319 47 16 85 18 402 15 l350 -2 67
-32z"/>
</g>
</svg>
